<svg width="102" height="21" viewBox="0 0 102 21" fill="none" xmlns="http://www.w3.org/2000/svg">
<path d="M8.075 18.475C7.925 18.475 7.80833 18.4417 7.725 18.375L1.15 14.075C0.95 13.9583 0.808333 13.8083 0.725 13.625C0.641667 13.425 0.6 13.2417 0.6 13.075C0.6 12.9083 0.641667 12.7333 0.725 12.55C0.825 12.35 0.966667 12.1833 1.15 12.05L7.725 7.75C7.80833 7.68333 7.925 7.65 8.075 7.65C8.34167 7.65 8.60833 7.775 8.875 8.025C9.14167 8.25833 9.275 8.55 9.275 8.9C9.275 9.23333 9.15833 9.475 8.925 9.625L3.675 13.075L8.925 16.525C9.15833 16.675 9.275 16.9167 9.275 17.25C9.275 17.6 9.14167 17.8917 8.875 18.125C8.60833 18.3583 8.34167 18.475 8.075 18.475ZM13.3266 20C12.9932 20 12.6849 19.925 12.4016 19.775C12.1349 19.625 12.0016 19.4 12.0016 19.1V2.575C12.0016 2.275 12.1349 2.05833 12.4016 1.925C12.6849 1.79167 12.9932 1.725 13.3266 1.725C13.6599 1.725 13.9599 1.79167 14.2266 1.925C14.5099 2.05833 14.6516 2.275 14.6516 2.575V19.1C14.6516 19.4 14.5099 19.625 14.2266 19.775C13.9599 19.925 13.6599 20 13.3266 20ZM21.3086 20.2C20.4753 20.2 19.7336 20.1 19.0836 19.9C18.4503 19.7 17.9419 19.45 17.5586 19.15C17.1919 18.8333 17.0086 18.5167 17.0086 18.2C17.0086 17.9667 17.0919 17.7167 17.2586 17.45C17.4253 17.1667 17.6419 17.025 17.9086 17.025C18.1253 17.025 18.3503 17.125 18.5836 17.325C18.8169 17.5083 19.1336 17.7 19.5336 17.9C19.9503 18.0833 20.5169 18.175 21.2336 18.175C22.0503 18.175 22.6086 18.0333 22.9086 17.75C23.2086 17.4667 23.3586 17.1583 23.3586 16.825C23.3586 16.3917 23.2086 16.0583 22.9086 15.825C22.6253 15.575 22.2503 15.375 21.7836 15.225C21.3336 15.075 20.8503 14.9333 20.3336 14.8C19.8169 14.65 19.3253 14.4583 18.8586 14.225C18.4086 13.9917 18.0336 13.6667 17.7336 13.25C17.4503 12.8333 17.3086 12.2833 17.3086 11.6C17.3086 11.0333 17.4503 10.475 17.7336 9.925C18.0169 9.35833 18.4669 8.9 19.0836 8.55C19.7169 8.18333 20.5586 8 21.6086 8C22.2253 8 22.8169 8.06667 23.3836 8.2C23.9669 8.33333 24.4419 8.51667 24.8086 8.75C25.1753 8.96667 25.3586 9.20833 25.3586 9.475C25.3586 9.59167 25.3169 9.75833 25.2336 9.975C25.1503 10.175 25.0336 10.3583 24.8836 10.525C24.7336 10.675 24.5586 10.75 24.3586 10.75C24.1753 10.75 23.9586 10.6917 23.7086 10.575C23.4753 10.4583 23.1919 10.3417 22.8586 10.225C22.5253 10.0917 22.1169 10.025 21.6336 10.025C20.9003 10.025 20.3836 10.1917 20.0836 10.525C19.7836 10.8417 19.6336 11.1583 19.6336 11.475C19.6336 11.8417 19.7753 12.125 20.0586 12.325C20.3586 12.525 20.7336 12.6917 21.1836 12.825C21.6503 12.9583 22.1419 13.1 22.6586 13.25C23.1753 13.3833 23.6586 13.5833 24.1086 13.85C24.5753 14.1 24.9503 14.4583 25.2336 14.925C25.5336 15.375 25.6836 15.9667 25.6836 16.7C25.6836 17.7833 25.3003 18.6417 24.5336 19.275C23.7836 19.8917 22.7086 20.2 21.3086 20.2ZM30.4148 20.2C29.4982 20.2 28.7148 19.9333 28.0648 19.4C27.4148 18.8667 27.0898 18.0333 27.0898 16.9C27.0898 15.95 27.3315 15.2167 27.8148 14.7C28.3148 14.1833 28.9982 13.825 29.8648 13.625C30.7482 13.425 31.7732 13.325 32.9398 13.325H34.0398V12.875C34.0398 12.4583 33.9565 12.0417 33.7898 11.625C33.6398 11.2083 33.3815 10.8667 33.0148 10.6C32.6648 10.3167 32.1815 10.175 31.5648 10.175C30.9482 10.175 30.4648 10.2417 30.1148 10.375C29.7815 10.4917 29.5148 10.6167 29.3148 10.75C29.1315 10.8667 28.9565 10.925 28.7898 10.925C28.4732 10.925 28.2315 10.7833 28.0648 10.5C27.9148 10.2 27.8398 9.9 27.8398 9.6C27.8398 9.3 28.0315 9.03333 28.4148 8.8C28.8148 8.55 29.3065 8.35833 29.8898 8.225C30.4732 8.075 31.0482 8 31.6148 8C32.8482 8 33.8315 8.23333 34.5648 8.7C35.2982 9.15 35.8315 9.75 36.1648 10.5C36.4982 11.2333 36.6648 12.0167 36.6648 12.85V19.1C36.6648 19.35 36.5398 19.5667 36.2898 19.75C36.0565 19.9167 35.7565 20 35.3898 20C35.0398 20 34.7482 19.9167 34.5148 19.75C34.2982 19.5667 34.1898 19.35 34.1898 19.1V18.25C33.7398 18.7667 33.2065 19.225 32.5898 19.625C31.9898 20.0083 31.2648 20.2 30.4148 20.2ZM31.3648 18.2C31.7815 18.2 32.1898 18.075 32.5898 17.825C33.0065 17.575 33.3482 17.2583 33.6148 16.875C33.8982 16.4917 34.0398 16.1 34.0398 15.7V14.775H33.4148C32.7815 14.775 32.1815 14.8167 31.6148 14.9C31.0482 14.9667 30.5898 15.1333 30.2398 15.4C29.9065 15.65 29.7398 16.0417 29.7398 16.575C29.7398 17.1417 29.8898 17.5583 30.1898 17.825C30.5065 18.075 30.8982 18.2 31.3648 18.2ZM45.2645 20.2C44.4811 20.2 43.7728 20.0083 43.1395 19.625C42.5061 19.225 42.0645 18.7667 41.8145 18.25V19.1C41.8145 19.3333 41.6978 19.5417 41.4645 19.725C41.2311 19.9083 40.9478 20 40.6145 20C40.2478 20 39.9395 19.9083 39.6895 19.725C39.4561 19.5417 39.3395 19.3333 39.3395 19.1V1.95C39.3395 1.7 39.4561 1.5 39.6895 1.35C39.9395 1.18333 40.2478 1.1 40.6145 1.1C40.9811 1.1 41.2978 1.18333 41.5645 1.35C41.8311 1.5 41.9645 1.7 41.9645 1.95V9.9C42.2311 9.4 42.6395 8.95833 43.1895 8.575C43.7395 8.19167 44.4145 8 45.2145 8C46.0311 8 46.7728 8.225 47.4395 8.675C48.1061 9.10833 48.6395 9.7 49.0395 10.45C49.4561 11.2 49.6645 12.025 49.6645 12.925V15.225C49.6645 16.0917 49.4561 16.9083 49.0395 17.675C48.6395 18.425 48.1061 19.0333 47.4395 19.5C46.7728 19.9667 46.0478 20.2 45.2645 20.2ZM44.5145 17.875C44.9811 17.875 45.3978 17.75 45.7645 17.5C46.1478 17.2333 46.4561 16.9 46.6895 16.5C46.9228 16.1 47.0395 15.675 47.0395 15.225V12.925C47.0395 12.4917 46.9228 12.075 46.6895 11.675C46.4561 11.275 46.1478 10.95 45.7645 10.7C45.3811 10.45 44.9561 10.325 44.4895 10.325C44.0728 10.325 43.6728 10.4333 43.2895 10.65C42.9061 10.85 42.5895 11.1417 42.3395 11.525C42.0895 11.9083 41.9645 12.375 41.9645 12.925V15.8C41.9645 16 42.0728 16.2667 42.2895 16.6C42.5228 16.9167 42.8311 17.2083 43.2145 17.475C43.5978 17.7417 44.0311 17.875 44.5145 17.875ZM57.3109 20.2C56.1776 20.2 55.1693 19.9917 54.2859 19.575C53.4193 19.1583 52.7359 18.5833 52.2359 17.85C51.7526 17.1 51.5109 16.225 51.5109 15.225V12.85C51.5109 11.9833 51.7443 11.1833 52.2109 10.45C52.6776 9.7 53.3026 9.10833 54.0859 8.675C54.8859 8.225 55.7609 8 56.7109 8C57.5943 8 58.4109 8.2 59.1609 8.6C59.9276 8.98333 60.5443 9.525 61.0109 10.225C61.4776 10.925 61.7109 11.725 61.7109 12.625C61.7109 13.325 61.5943 13.825 61.3609 14.125C61.1443 14.425 60.8609 14.6083 60.5109 14.675C60.1609 14.7417 59.7943 14.775 59.4109 14.775H54.1359V15.35C54.1359 16.1833 54.4359 16.85 55.0359 17.35C55.6526 17.8333 56.4359 18.075 57.3859 18.075C57.9859 18.075 58.4609 18 58.8109 17.85C59.1776 17.6833 59.4776 17.5167 59.7109 17.35C59.9609 17.1833 60.2026 17.1 60.4359 17.1C60.7526 17.1 61.0026 17.25 61.1859 17.55C61.3693 17.8333 61.4609 18.0833 61.4609 18.3C61.4609 18.55 61.2859 18.825 60.9359 19.125C60.6026 19.425 60.1276 19.6833 59.5109 19.9C58.8943 20.1 58.1609 20.2 57.3109 20.2ZM54.1359 13.15H58.2859C58.6526 13.15 58.8943 13.1 59.0109 13C59.1443 12.9 59.2109 12.7 59.2109 12.4C59.2109 11.7333 58.9693 11.1667 58.4859 10.7C58.0026 10.2333 57.4026 10 56.6859 10C56.0026 10 55.4026 10.225 54.8859 10.675C54.3859 11.1083 54.1359 11.6667 54.1359 12.35V13.15ZM65.3512 20C64.9678 20 64.6512 19.9083 64.4012 19.725C64.1678 19.5417 64.0512 19.3333 64.0512 19.1V1.95C64.0512 1.7 64.1678 1.5 64.4012 1.35C64.6512 1.18333 64.9678 1.1 65.3512 1.1C65.7178 1.1 66.0262 1.18333 66.2762 1.35C66.5428 1.5 66.6762 1.7 66.6762 1.95V19.1C66.6762 19.3333 66.5428 19.5417 66.2762 19.725C66.0262 19.9083 65.7178 20 65.3512 20ZM72.2117 20.2C71.2951 20.2 70.5117 19.9333 69.8617 19.4C69.2117 18.8667 68.8867 18.0333 68.8867 16.9C68.8867 15.95 69.1284 15.2167 69.6117 14.7C70.1117 14.1833 70.7951 13.825 71.6617 13.625C72.5451 13.425 73.5701 13.325 74.7367 13.325H75.8367V12.875C75.8367 12.4583 75.7534 12.0417 75.5867 11.625C75.4367 11.2083 75.1784 10.8667 74.8117 10.6C74.4617 10.3167 73.9784 10.175 73.3617 10.175C72.7451 10.175 72.2617 10.2417 71.9117 10.375C71.5784 10.4917 71.3117 10.6167 71.1117 10.75C70.9284 10.8667 70.7534 10.925 70.5867 10.925C70.2701 10.925 70.0284 10.7833 69.8617 10.5C69.7117 10.2 69.6367 9.9 69.6367 9.6C69.6367 9.3 69.8284 9.03333 70.2117 8.8C70.6117 8.55 71.1034 8.35833 71.6867 8.225C72.2701 8.075 72.8451 8 73.4117 8C74.6451 8 75.6284 8.23333 76.3617 8.7C77.0951 9.15 77.6284 9.75 77.9617 10.5C78.2951 11.2333 78.4617 12.0167 78.4617 12.85V19.1C78.4617 19.35 78.3367 19.5667 78.0867 19.75C77.8534 19.9167 77.5534 20 77.1867 20C76.8367 20 76.5451 19.9167 76.3117 19.75C76.0951 19.5667 75.9867 19.35 75.9867 19.1V18.25C75.5367 18.7667 75.0034 19.225 74.3867 19.625C73.7867 20.0083 73.0617 20.2 72.2117 20.2ZM73.1617 18.2C73.5784 18.2 73.9867 18.075 74.3867 17.825C74.8034 17.575 75.1451 17.2583 75.4117 16.875C75.6951 16.4917 75.8367 16.1 75.8367 15.7V14.775H75.2117C74.5784 14.775 73.9784 14.8167 73.4117 14.9C72.8451 14.9667 72.3867 15.1333 72.0367 15.4C71.7034 15.65 71.5367 16.0417 71.5367 16.575C71.5367 17.1417 71.6867 17.5583 71.9867 17.825C72.3034 18.075 72.6951 18.2 73.1617 18.2ZM81.1863 20.875C80.903 20.875 80.6697 20.775 80.4863 20.575C80.303 20.3917 80.2113 20.1833 80.2113 19.95C80.2113 19.8167 80.2447 19.6917 80.3113 19.575L89.5113 1.2C89.6447 0.899999 89.8863 0.749999 90.2363 0.749999C90.4863 0.749999 90.7197 0.841665 90.9363 1.025C91.1697 1.19167 91.2863 1.41667 91.2863 1.7C91.2863 1.85 91.2613 1.98333 91.2113 2.1L82.0363 20.4C81.8863 20.7167 81.603 20.875 81.1863 20.875ZM94.0225 18.475C93.7558 18.475 93.4891 18.3583 93.2225 18.125C92.9725 17.8917 92.8475 17.6 92.8475 17.25C92.8475 16.9167 92.9641 16.675 93.1975 16.525L98.4475 13.075L93.1975 9.625C92.9641 9.475 92.8475 9.23333 92.8475 8.9C92.8475 8.55 92.9725 8.25833 93.2225 8.025C93.4891 7.775 93.7558 7.65 94.0225 7.65C94.1891 7.65 94.3141 7.68333 94.3975 7.75L100.972 12.05C101.156 12.1833 101.289 12.35 101.372 12.55C101.472 12.7333 101.522 12.9083 101.522 13.075C101.522 13.2417 101.472 13.425 101.372 13.625C101.289 13.8083 101.156 13.9583 100.972 14.075L94.3975 18.375C94.3141 18.4417 94.1891 18.475 94.0225 18.475Z" fill="#7673E7"/>
</svg>
